<svg width="13" height="13" viewBox="0 0 13 13" fill="none" xmlns="http://www.w3.org/2000/svg">
<path fill-rule="evenodd" clip-rule="evenodd" d="M3.5 6.5C3.5 6.40054 3.53951 6.30516 3.60984 6.23484C3.68016 6.16451 3.77554 6.125 3.875 6.125H8.21975L6.6095 4.5155C6.53908 4.44509 6.49953 4.34958 6.49953 4.25C6.49953 4.15042 6.53908 4.05492 6.6095 3.9845C6.67991 3.91409 6.77542 3.87453 6.875 3.87453C6.97458 3.87453 7.07009 3.91409 7.1405 3.9845L9.3905 6.2345C9.42542 6.26934 9.45313 6.31072 9.47203 6.35628C9.49094 6.40183 9.50067 6.45068 9.50067 6.5C9.50067 6.54933 9.49094 6.59817 9.47203 6.64373C9.45313 6.68928 9.42542 6.73067 9.3905 6.7655L7.1405 9.0155C7.07009 9.08592 6.97458 9.12547 6.875 9.12547C6.77542 9.12547 6.67991 9.08592 6.6095 9.0155C6.53908 8.94509 6.49953 8.84958 6.49953 8.75C6.49953 8.65042 6.53908 8.55492 6.6095 8.4845L8.21975 6.875H3.875C3.77554 6.875 3.68016 6.83549 3.60984 6.76517C3.53951 6.69484 3.5 6.59946 3.5 6.5Z" fill="#D1D5DB"/>
</svg>
