<svg width="13" height="13" viewBox="0 0 13 13" fill="none" xmlns="http://www.w3.org/2000/svg">
<path fill-rule="evenodd" clip-rule="evenodd" d="M9.5 6.5C9.5 6.59946 9.46049 6.69484 9.39016 6.76516C9.31984 6.83549 9.22446 6.875 9.125 6.875H4.78025L6.3905 8.4845C6.46092 8.55491 6.50047 8.65042 6.50047 8.75C6.50047 8.84958 6.46092 8.94508 6.3905 9.0155C6.32009 9.08591 6.22458 9.12547 6.125 9.12547C6.02542 9.12547 5.92991 9.08591 5.8595 9.0155L3.6095 6.7655C3.57458 6.73066 3.54687 6.68928 3.52797 6.64372C3.50906 6.59817 3.49933 6.54932 3.49933 6.5C3.49933 6.45067 3.50906 6.40183 3.52797 6.35627C3.54687 6.31072 3.57458 6.26933 3.6095 6.2345L5.8595 3.9845C5.92991 3.91408 6.02542 3.87453 6.125 3.87453C6.22458 3.87453 6.32009 3.91408 6.3905 3.9845C6.46092 4.05491 6.50047 4.15042 6.50047 4.25C6.50047 4.34958 6.46092 4.44508 6.3905 4.5155L4.78025 6.125H9.125C9.22446 6.125 9.31984 6.16451 9.39016 6.23483C9.46049 6.30516 9.5 6.40054 9.5 6.5Z" fill="#D1D5DB"/>
</svg>
